<mxfile host="www.draw.io" modified="2019-12-30T11:29:49.055Z" agent="Mozilla/5.0 (Windows NT 10.0; Win64; x64) AppleWebKit/537.36 (KHTML, like Gecko) Chrome/78.0.3904.108 Safari/537.36" etag="fAdER89nqaVX2uWeRtKC" version="12.4.7" type="github">
  <diagram id="AbIN9JJu9htzWIxVk72K" name="Page-1">
    <mxGraphModel dx="1102" dy="582" grid="1" gridSize="10" guides="1" tooltips="1" connect="1" arrows="1" fold="1" page="1" pageScale="1" pageWidth="827" pageHeight="1169" math="0" shadow="0">
      <root>
        <mxCell id="0"/>
        <mxCell id="1" parent="0"/>
        <mxCell id="EJcAhS0BFuOTxTV6jG_h-1" style="rounded=0;orthogonalLoop=1;jettySize=auto;html=1;exitX=1;exitY=0.5;exitDx=0;exitDy=0;entryX=0;entryY=0;entryDx=50;entryDy=50;entryPerimeter=0;" edge="1" parent="1" source="EJcAhS0BFuOTxTV6jG_h-3" target="EJcAhS0BFuOTxTV6jG_h-5">
          <mxGeometry relative="1" as="geometry"/>
        </mxCell>
        <mxCell id="EJcAhS0BFuOTxTV6jG_h-2" style="edgeStyle=none;rounded=0;orthogonalLoop=1;jettySize=auto;html=1;exitX=1;exitY=0.5;exitDx=0;exitDy=0;entryX=0;entryY=0;entryDx=50;entryDy=50;entryPerimeter=0;" edge="1" parent="1" source="EJcAhS0BFuOTxTV6jG_h-3" target="EJcAhS0BFuOTxTV6jG_h-6">
          <mxGeometry relative="1" as="geometry"/>
        </mxCell>
        <mxCell id="EJcAhS0BFuOTxTV6jG_h-3" value="Director&lt;br&gt;Server" style="whiteSpace=wrap;html=1;aspect=fixed;fillColor=#f8cecc;strokeColor=#b85450;" vertex="1" parent="1">
          <mxGeometry x="330" y="245" width="80" height="80" as="geometry"/>
        </mxCell>
        <mxCell id="EJcAhS0BFuOTxTV6jG_h-4" style="edgeStyle=orthogonalEdgeStyle;rounded=0;orthogonalLoop=1;jettySize=auto;html=1;exitX=0;exitY=0;exitDx=0;exitDy=15;exitPerimeter=0;entryX=0.5;entryY=0;entryDx=0;entryDy=0;strokeColor=#3399FF;" edge="1" parent="1" source="EJcAhS0BFuOTxTV6jG_h-5" target="EJcAhS0BFuOTxTV6jG_h-10">
          <mxGeometry relative="1" as="geometry"/>
        </mxCell>
        <mxCell id="EJcAhS0BFuOTxTV6jG_h-5" value="" style="shape=cube;whiteSpace=wrap;html=1;boundedLbl=1;backgroundOutline=1;darkOpacity=0.05;darkOpacity2=0.1;rotation=90;fillColor=#dae8fc;strokeColor=#6c8ebf;" vertex="1" parent="1">
          <mxGeometry x="590" y="155" width="80" height="50" as="geometry"/>
        </mxCell>
        <mxCell id="EJcAhS0BFuOTxTV6jG_h-6" value="" style="shape=cube;whiteSpace=wrap;html=1;boundedLbl=1;backgroundOutline=1;darkOpacity=0.05;darkOpacity2=0.1;rotation=90;fillColor=#dae8fc;strokeColor=#6c8ebf;" vertex="1" parent="1">
          <mxGeometry x="590" y="340" width="80" height="50" as="geometry"/>
        </mxCell>
        <mxCell id="EJcAhS0BFuOTxTV6jG_h-7" value="RS1" style="text;html=1;strokeColor=none;fillColor=none;align=center;verticalAlign=middle;whiteSpace=wrap;rounded=0;" vertex="1" parent="1">
          <mxGeometry x="610" y="225" width="40" height="20" as="geometry"/>
        </mxCell>
        <mxCell id="EJcAhS0BFuOTxTV6jG_h-8" value="RS2" style="text;html=1;strokeColor=none;fillColor=none;align=center;verticalAlign=middle;whiteSpace=wrap;rounded=0;" vertex="1" parent="1">
          <mxGeometry x="610" y="410" width="40" height="20" as="geometry"/>
        </mxCell>
        <mxCell id="EJcAhS0BFuOTxTV6jG_h-9" value="" style="edgeStyle=orthogonalEdgeStyle;rounded=0;orthogonalLoop=1;jettySize=auto;html=1;entryX=0;entryY=0.5;entryDx=0;entryDy=0;exitX=1;exitY=1;exitDx=0;exitDy=0;" edge="1" parent="1" source="EJcAhS0BFuOTxTV6jG_h-10" target="EJcAhS0BFuOTxTV6jG_h-3">
          <mxGeometry relative="1" as="geometry">
            <mxPoint x="130" y="275" as="targetPoint"/>
            <Array as="points">
              <mxPoint x="50" y="285"/>
            </Array>
          </mxGeometry>
        </mxCell>
        <mxCell id="EJcAhS0BFuOTxTV6jG_h-10" value="" style="rounded=0;whiteSpace=wrap;html=1;fillColor=#d5e8d4;strokeColor=#82b366;" vertex="1" parent="1">
          <mxGeometry x="47" y="240" width="80" height="46" as="geometry"/>
        </mxCell>
        <mxCell id="EJcAhS0BFuOTxTV6jG_h-11" value="" style="shape=parallelogram;perimeter=parallelogramPerimeter;whiteSpace=wrap;html=1;fillColor=#d5e8d4;strokeColor=#82b366;" vertex="1" parent="1">
          <mxGeometry x="27" y="286" width="100" height="20" as="geometry"/>
        </mxCell>
        <mxCell id="EJcAhS0BFuOTxTV6jG_h-12" value="LB" style="text;html=1;strokeColor=none;fillColor=none;align=center;verticalAlign=middle;whiteSpace=wrap;rounded=0;dashed=1;" vertex="1" parent="1">
          <mxGeometry x="350" y="325" width="40" height="20" as="geometry"/>
        </mxCell>
        <mxCell id="EJcAhS0BFuOTxTV6jG_h-13" value="VIP" style="text;html=1;strokeColor=none;fillColor=none;align=center;verticalAlign=middle;whiteSpace=wrap;rounded=0;" vertex="1" parent="1">
          <mxGeometry x="290" y="253" width="40" height="20" as="geometry"/>
        </mxCell>
        <mxCell id="EJcAhS0BFuOTxTV6jG_h-14" value="DIP" style="text;html=1;strokeColor=none;fillColor=none;align=center;verticalAlign=middle;whiteSpace=wrap;rounded=0;" vertex="1" parent="1">
          <mxGeometry x="410" y="240" width="40" height="20" as="geometry"/>
        </mxCell>
        <mxCell id="EJcAhS0BFuOTxTV6jG_h-15" value="RIP1" style="text;html=1;strokeColor=none;fillColor=none;align=center;verticalAlign=middle;whiteSpace=wrap;rounded=0;" vertex="1" parent="1">
          <mxGeometry x="570" y="170" width="40" height="20" as="geometry"/>
        </mxCell>
        <mxCell id="EJcAhS0BFuOTxTV6jG_h-16" value="RIP2" style="text;html=1;strokeColor=none;fillColor=none;align=center;verticalAlign=middle;whiteSpace=wrap;rounded=0;" vertex="1" parent="1">
          <mxGeometry x="570" y="380" width="40" height="20" as="geometry"/>
        </mxCell>
        <mxCell id="EJcAhS0BFuOTxTV6jG_h-17" value="CIP" style="text;html=1;strokeColor=none;fillColor=none;align=center;verticalAlign=middle;whiteSpace=wrap;rounded=0;" vertex="1" parent="1">
          <mxGeometry x="127" y="260" width="40" height="20" as="geometry"/>
        </mxCell>
        <mxCell id="EJcAhS0BFuOTxTV6jG_h-18" value="CIP" style="rounded=0;whiteSpace=wrap;html=1;strokeColor=#FF0000;" vertex="1" parent="1">
          <mxGeometry x="17.5" y="370" width="50" height="30" as="geometry"/>
        </mxCell>
        <mxCell id="EJcAhS0BFuOTxTV6jG_h-19" value="VIP" style="rounded=0;whiteSpace=wrap;html=1;strokeColor=#FF0000;" vertex="1" parent="1">
          <mxGeometry x="67.5" y="370" width="50" height="30" as="geometry"/>
        </mxCell>
        <mxCell id="EJcAhS0BFuOTxTV6jG_h-20" value="" style="endArrow=classic;html=1;strokeColor=#FF0000;" edge="1" parent="1">
          <mxGeometry width="50" height="50" relative="1" as="geometry">
            <mxPoint x="82.5" y="349" as="sourcePoint"/>
            <mxPoint x="420" y="349" as="targetPoint"/>
          </mxGeometry>
        </mxCell>
        <mxCell id="EJcAhS0BFuOTxTV6jG_h-23" value="&lt;font color=&quot;#ff0000&quot;&gt;DIP&lt;/font&gt;" style="rounded=0;whiteSpace=wrap;html=1;strokeColor=#FF0000;" vertex="1" parent="1">
          <mxGeometry x="282.5" y="370" width="50" height="30" as="geometry"/>
        </mxCell>
        <mxCell id="EJcAhS0BFuOTxTV6jG_h-24" value="&lt;font color=&quot;#ff0000&quot;&gt;RIP1&lt;/font&gt;" style="rounded=0;whiteSpace=wrap;html=1;strokeColor=#FF0000;" vertex="1" parent="1">
          <mxGeometry x="332.5" y="370" width="50" height="30" as="geometry"/>
        </mxCell>
        <mxCell id="EJcAhS0BFuOTxTV6jG_h-27" value="VIP" style="rounded=0;whiteSpace=wrap;html=1;strokeColor=#3399FF;" vertex="1" parent="1">
          <mxGeometry x="290" y="130" width="50" height="30" as="geometry"/>
        </mxCell>
        <mxCell id="EJcAhS0BFuOTxTV6jG_h-28" value="CIP" style="rounded=0;whiteSpace=wrap;html=1;strokeColor=#3399FF;" vertex="1" parent="1">
          <mxGeometry x="340" y="130" width="50" height="30" as="geometry"/>
        </mxCell>
        <mxCell id="EJcAhS0BFuOTxTV6jG_h-31" value="" style="endArrow=classic;html=1;strokeColor=#FF0000;" edge="1" parent="1">
          <mxGeometry width="50" height="50" relative="1" as="geometry">
            <mxPoint x="470" y="280" as="sourcePoint"/>
            <mxPoint x="550" y="240" as="targetPoint"/>
          </mxGeometry>
        </mxCell>
        <mxCell id="EJcAhS0BFuOTxTV6jG_h-33" value="CIP" style="rounded=0;whiteSpace=wrap;html=1;strokeColor=#FF0000;" vertex="1" parent="1">
          <mxGeometry x="382.5" y="370" width="50" height="30" as="geometry"/>
        </mxCell>
        <mxCell id="EJcAhS0BFuOTxTV6jG_h-34" value="VIP" style="rounded=0;whiteSpace=wrap;html=1;strokeColor=#FF0000;" vertex="1" parent="1">
          <mxGeometry x="432.5" y="370" width="50" height="30" as="geometry"/>
        </mxCell>
        <mxCell id="EJcAhS0BFuOTxTV6jG_h-37" value="CIP" style="rounded=0;whiteSpace=wrap;html=1;strokeColor=#FF0000;" vertex="1" parent="1">
          <mxGeometry x="580" y="249" width="50" height="30" as="geometry"/>
        </mxCell>
        <mxCell id="EJcAhS0BFuOTxTV6jG_h-38" value="VIP" style="rounded=0;whiteSpace=wrap;html=1;strokeColor=#FF0000;" vertex="1" parent="1">
          <mxGeometry x="630" y="249" width="50" height="30" as="geometry"/>
        </mxCell>
        <mxCell id="EJcAhS0BFuOTxTV6jG_h-39" value="封装" style="text;html=1;strokeColor=none;fillColor=none;align=center;verticalAlign=middle;whiteSpace=wrap;rounded=0;" vertex="1" parent="1">
          <mxGeometry x="360" y="410" width="40" height="20" as="geometry"/>
        </mxCell>
        <mxCell id="EJcAhS0BFuOTxTV6jG_h-40" value="解封装" style="text;html=1;strokeColor=none;fillColor=none;align=center;verticalAlign=middle;whiteSpace=wrap;rounded=0;" vertex="1" parent="1">
          <mxGeometry x="615" y="287" width="40" height="20" as="geometry"/>
        </mxCell>
      </root>
    </mxGraphModel>
  </diagram>
</mxfile>
